<?xml version="1.0" encoding="UTF-8" standalone="no" ?>
<!DOCTYPE svg PUBLIC "-//W3C//DTD SVG 1.1//EN" "http://www.w3.org/Graphics/SVG/1.1/DTD/svg11.dtd">
<svg xmlns="http://www.w3.org/2000/svg" xmlns:xlink="http://www.w3.org/1999/xlink" version="1.1" width="1080" height="1080" viewBox="0 0 1080 1080" xml:space="preserve">
<desc>Created with Fabric.js 5.2.4</desc>
<defs>
</defs>
<g transform="matrix(0 0 0 0 0 0)" id="28ed6a52-1128-4ce2-b5f2-09c20c0354bc"  >
</g>
<g transform="matrix(1 0 0 1 540 540)" id="f7f3f842-5034-46c9-b353-8eb1d69b6151"  >
<rect style="stroke: none; stroke-width: 1; stroke-dasharray: none; stroke-linecap: butt; stroke-dashoffset: 0; stroke-linejoin: miter; stroke-miterlimit: 4; fill: rgb(255,255,255); fill-rule: nonzero; opacity: 1; visibility: hidden;" vector-effect="non-scaling-stroke"  x="-540" y="-540" rx="0" ry="0" width="1080" height="1080" />
</g>
<g transform="matrix(1 0 0 1 540 540)"  >
<g style="" vector-effect="non-scaling-stroke"   >
		<g transform="matrix(1 0 0 1 0 0)"  >
<polygon style="stroke: none; stroke-width: 1; stroke-dasharray: none; stroke-linecap: butt; stroke-dashoffset: 0; stroke-linejoin: miter; stroke-miterlimit: 4; fill: rgb(101,101,101); fill-rule: nonzero; opacity: 1;" vector-effect="non-scaling-stroke"  points="-32.51,-35.64 -37.05,-35.64 -37.05,35.64 37.05,35.64 37.05,31.04 -32.51,31.04 " />
</g>
		<g transform="matrix(1 0 0 1 -21.28 5.25)"  >
<path style="stroke: none; stroke-width: 1; stroke-dasharray: none; stroke-linecap: butt; stroke-dashoffset: 0; stroke-linejoin: miter; stroke-miterlimit: 4; fill: rgb(101,101,101); fill-rule: nonzero; opacity: 1;" vector-effect="non-scaling-stroke"  transform=" translate(-28.72, -55.25)" d="M 24.092 36.293 L 34.291 36.293 L 34.291 74.19800000000001 L 23.15 74.19800000000001 L 23.15 36.293 L 24.092 36.293 z" stroke-linecap="round" />
</g>
		<g transform="matrix(1 0 0 1 -8.49 1.03)"  >
<path style="stroke: none; stroke-width: 1; stroke-dasharray: none; stroke-linecap: butt; stroke-dashoffset: 0; stroke-linejoin: miter; stroke-miterlimit: 4; fill: rgb(101,101,101); fill-rule: nonzero; opacity: 1;" vector-effect="non-scaling-stroke"  transform=" translate(-41.51, -51.03)" d="M 36.826 27.863 L 47.082 27.863 L 47.082 74.19800000000001 L 35.94 74.19800000000001 L 35.94 27.863 L 36.826 27.863 z" stroke-linecap="round" />
</g>
		<g transform="matrix(1 0 0 1 4.27 11.91)"  >
<path style="stroke: none; stroke-width: 1; stroke-dasharray: none; stroke-linecap: butt; stroke-dashoffset: 0; stroke-linejoin: miter; stroke-miterlimit: 4; fill: rgb(101,101,101); fill-rule: nonzero; opacity: 1;" vector-effect="non-scaling-stroke"  transform=" translate(-54.27, -61.91)" d="M 49.616 49.616 L 59.815 49.616 L 59.815 74.19800000000001 L 48.735 74.19800000000001 L 48.735 49.616 L 49.616 49.616 z" stroke-linecap="round" />
</g>
		<g transform="matrix(1 0 0 1 17.04 -0.32)"  >
<path style="stroke: none; stroke-width: 1; stroke-dasharray: none; stroke-linecap: butt; stroke-dashoffset: 0; stroke-linejoin: miter; stroke-miterlimit: 4; fill: rgb(101,101,101); fill-rule: nonzero; opacity: 1;" vector-effect="non-scaling-stroke"  transform=" translate(-67.04, -49.68)" d="M 62.411 25.152 L 72.60900000000001 25.152 L 72.60900000000001 74.19800000000001 L 61.469 74.19800000000001 L 61.469 25.152 L 62.411 25.152 z" stroke-linecap="round" />
</g>
</g>
</g>
<g transform="matrix(1 0 0 1 540 540)"  >
<g style="" vector-effect="non-scaling-stroke"   >
		<g transform="matrix(1 0 0 1 0 0)"  >
<polygon style="stroke: none; stroke-width: 1; stroke-dasharray: none; stroke-linecap: butt; stroke-dashoffset: 0; stroke-linejoin: miter; stroke-miterlimit: 4; fill: rgb(101,101,101); fill-rule: nonzero; opacity: 1;" vector-effect="non-scaling-stroke"  points="-32.51,-35.64 -37.05,-35.64 -37.05,35.64 37.05,35.64 37.05,31.04 -32.51,31.04 " />
</g>
		<g transform="matrix(1 0 0 1 -21.28 5.25)"  >
<path style="stroke: none; stroke-width: 1; stroke-dasharray: none; stroke-linecap: butt; stroke-dashoffset: 0; stroke-linejoin: miter; stroke-miterlimit: 4; fill: rgb(101,101,101); fill-rule: nonzero; opacity: 1;" vector-effect="non-scaling-stroke"  transform=" translate(-28.72, -55.25)" d="M 24.092 36.293 L 34.291 36.293 L 34.291 74.19800000000001 L 23.15 74.19800000000001 L 23.15 36.293 L 24.092 36.293 z" stroke-linecap="round" />
</g>
		<g transform="matrix(1 0 0 1 -8.49 1.03)"  >
<path style="stroke: none; stroke-width: 1; stroke-dasharray: none; stroke-linecap: butt; stroke-dashoffset: 0; stroke-linejoin: miter; stroke-miterlimit: 4; fill: rgb(101,101,101); fill-rule: nonzero; opacity: 1;" vector-effect="non-scaling-stroke"  transform=" translate(-41.51, -51.03)" d="M 36.826 27.863 L 47.082 27.863 L 47.082 74.19800000000001 L 35.94 74.19800000000001 L 35.94 27.863 L 36.826 27.863 z" stroke-linecap="round" />
</g>
		<g transform="matrix(1 0 0 1 4.27 11.91)"  >
<path style="stroke: none; stroke-width: 1; stroke-dasharray: none; stroke-linecap: butt; stroke-dashoffset: 0; stroke-linejoin: miter; stroke-miterlimit: 4; fill: rgb(101,101,101); fill-rule: nonzero; opacity: 1;" vector-effect="non-scaling-stroke"  transform=" translate(-54.27, -61.91)" d="M 49.616 49.616 L 59.815 49.616 L 59.815 74.19800000000001 L 48.735 74.19800000000001 L 48.735 49.616 L 49.616 49.616 z" stroke-linecap="round" />
</g>
		<g transform="matrix(1 0 0 1 17.04 -0.32)"  >
<path style="stroke: none; stroke-width: 1; stroke-dasharray: none; stroke-linecap: butt; stroke-dashoffset: 0; stroke-linejoin: miter; stroke-miterlimit: 4; fill: rgb(101,101,101); fill-rule: nonzero; opacity: 1;" vector-effect="non-scaling-stroke"  transform=" translate(-67.04, -49.68)" d="M 62.411 25.152 L 72.60900000000001 25.152 L 72.60900000000001 74.19800000000001 L 61.469 74.19800000000001 L 61.469 25.152 L 62.411 25.152 z" stroke-linecap="round" />
</g>
</g>
</g>
<g transform="matrix(14 0 0 14 540 540)"  >
<polygon style="stroke: none; stroke-width: 1; stroke-dasharray: none; stroke-linecap: butt; stroke-dashoffset: 0; stroke-linejoin: miter; stroke-miterlimit: 4; fill: rgb(0,0,0); fill-opacity: 0.82; fill-rule: nonzero; opacity: 1;" vector-effect="non-scaling-stroke"  points="-32.51,-35.64 -37.05,-35.64 -37.05,35.64 37.05,35.64 37.05,31.04 -32.51,31.04 " />
</g>
<g transform="matrix(14 0 0 14 242.18 613.41)"  >
<path style="stroke: none; stroke-width: 1; stroke-dasharray: none; stroke-linecap: butt; stroke-dashoffset: 0; stroke-linejoin: miter; stroke-miterlimit: 4; fill: rgb(74,125,244); fill-rule: nonzero; opacity: 1;" vector-effect="non-scaling-stroke"  transform=" translate(-28.72, -55.25)" d="M 24.092 36.293 L 34.291 36.293 L 34.291 74.19800000000001 L 23.15 74.19800000000001 L 23.15 36.293 L 24.092 36.293 z" stroke-linecap="round" />
</g>
<g transform="matrix(14 0 0 14 421.19 554.42)"  >
<path style="stroke: none; stroke-width: 1; stroke-dasharray: none; stroke-linecap: butt; stroke-dashoffset: 0; stroke-linejoin: miter; stroke-miterlimit: 4; fill: rgb(248,21,21); fill-rule: nonzero; opacity: 1;" vector-effect="non-scaling-stroke"  transform=" translate(-41.51, -51.03)" d="M 36.826 27.863 L 47.082 27.863 L 47.082 74.19800000000001 L 35.94 74.19800000000001 L 35.94 27.863 L 36.826 27.863 z" stroke-linecap="round" />
</g>
<g transform="matrix(14 0 0 14 599.83 706.65)"  >
<path style="stroke: none; stroke-width: 1; stroke-dasharray: none; stroke-linecap: butt; stroke-dashoffset: 0; stroke-linejoin: miter; stroke-miterlimit: 4; fill: rgb(30,156,27); fill-rule: nonzero; opacity: 1;" vector-effect="non-scaling-stroke"  transform=" translate(-54.27, -61.91)" d="M 49.616 49.616 L 59.815 49.616 L 59.815 74.19800000000001 L 48.735 74.19800000000001 L 48.735 49.616 L 49.616 49.616 z" stroke-linecap="round" />
</g>
<g transform="matrix(14 0 0 14 778.47 535.45)"  >
<path style="stroke: none; stroke-width: 1; stroke-dasharray: none; stroke-linecap: butt; stroke-dashoffset: 0; stroke-linejoin: miter; stroke-miterlimit: 4; fill: rgb(248,21,21); fill-rule: nonzero; opacity: 1;" vector-effect="non-scaling-stroke"  transform=" translate(-67.04, -49.68)" d="M 62.411 25.152 L 72.60900000000001 25.152 L 72.60900000000001 74.19800000000001 L 61.469 74.19800000000001 L 61.469 25.152 L 62.411 25.152 z" stroke-linecap="round" />
</g>
<g transform="matrix(NaN NaN NaN NaN 0 0)"  >
<g style=""   >
</g>
</g>
</svg>